<?xml version="1.0" encoding="utf-8"?>
<!-- Generator: Adobe Illustrator 18.1.0, SVG Export Plug-In . SVG Version: 6.00 Build 0)  -->
<!DOCTYPE svg PUBLIC "-//W3C//DTD SVG 1.1//EN" "http://www.w3.org/Graphics/SVG/1.1/DTD/svg11.dtd">
<svg version="1.1" id="Layer_1" xmlns="http://www.w3.org/2000/svg" xmlns:xlink="http://www.w3.org/1999/xlink" x="0px" y="0px"
	 viewBox="0 0 200 200" enable-background="new 0 0 200 200" xml:space="preserve">
<polygon fill="#FF1CFF" stroke="#2D2D39" stroke-width="4" stroke-miterlimit="10" points="57.1,29 40.2,0 1,0 1,97 30,97 30,29 "/>
<polygon fill="#E9F500" stroke="#2D2D39" stroke-width="4" stroke-miterlimit="10" points="172,29 172,97 201,97 201,0 162.2,0 
	153.7,14.5 145.2,29 "/>
<polygon fill="#FF4517" stroke="#2D2D39" stroke-width="4" stroke-miterlimit="10" points="63.6,29 138.7,29 138.7,29 147.2,14.5 
	155.6,0 46.7,0 55.1,14.5 63.6,29 "/>
<polygon fill="#1734F0" stroke="#2D2D39" stroke-width="4" stroke-miterlimit="10" points="30,103 1,103 1,200 40.2,200 57.1,171 
	30,171 "/>
<polygon fill="#22F20F" stroke="#2D2D39" stroke-width="4" stroke-miterlimit="10" points="145.2,171 153.7,185.5 162.2,200 
	201,200 201,103 172,103 172,171 "/>
<polygon fill="#00C4F0" stroke="#2D2D39" stroke-width="4" stroke-miterlimit="10" points="138.7,171 63.6,171 63.6,171 55.1,185.5 
	46.7,200 155.6,200 147.2,185.5 138.7,171 "/>
<polygon opacity="0.66" fill="#FF1CFF" stroke="#2D2D39" stroke-width="4" stroke-miterlimit="10" points="64,63 76.7,63 68.5,49 
	60.3,35 36,35 36,97 64,97 "/>
<polygon opacity="0.66" fill="#FF4517" stroke="#2D2D39" stroke-width="4" stroke-miterlimit="10" points="66.9,35 75,49 83.2,63 
	119.1,63 127.3,49 135.5,35 135.4,35 66.9,35 "/>
<polygon opacity="0.66" fill="#1734F0" stroke="#2D2D39" stroke-width="4" stroke-miterlimit="10" points="76.7,137 64,137 64,103 
	36,103 36,165 60.3,165 68.5,151 "/>
<polygon opacity="0.66" fill="#00C4F0" stroke="#2D2D39" stroke-width="4" stroke-miterlimit="10" points="119.1,137 83.2,137 
	75,151 66.9,165 66.9,165 135.4,165 135.5,165 127.3,151 "/>
<polygon opacity="0.66" fill="#E9F500" stroke="#2D2D39" stroke-width="4" stroke-miterlimit="10" points="125.6,63 138,63 138,97 
	166,97 166,35 142,35 133.8,49 "/>
<polygon opacity="0.66" fill="#E9F500" stroke="#2D2D39" stroke-width="4" stroke-miterlimit="10" points="133.8,49.1 142,34.8 
	142,34.8 "/>
<polygon opacity="0.66" fill="#22F20F" stroke="#2D2D39" stroke-width="4" stroke-miterlimit="10" points="138,137 125.6,137 
	133.8,151 142,165 166,165 166,103 138,103 "/>
<polygon opacity="0.33" fill="#00C4F0" stroke="#2D2D39" stroke-width="4" stroke-miterlimit="10" points="86.3,132 117,132 
	101.5,105.7 "/>
<polygon opacity="0.33" fill="#22F20F" stroke="#2D2D39" stroke-width="4" stroke-miterlimit="10" points="134,103 106.7,103 
	124,132 134,132 "/>
<polygon opacity="0.33" fill="#E9F500" stroke="#2D2D39" stroke-width="4" stroke-miterlimit="10" points="134,97 134,68 123.6,68 
	106.7,97 "/>
<polygon opacity="0.33" fill="#1734F0" stroke="#2D2D39" stroke-width="4" stroke-miterlimit="10" points="69,103 69,132 79.4,132 
	96.3,103 "/>
<polygon opacity="0.33" fill="#FF1CFF" stroke="#2D2D39" stroke-width="4" stroke-miterlimit="10" points="79,68 69,68 69,97 
	96.3,97 "/>
<polygon opacity="0.33" fill="#FF4517" stroke="#2D2D39" stroke-width="4" stroke-miterlimit="10" points="116.7,68 86,68 
	101.5,94.3 "/>
</svg>
